<?xml version="1.0" standalone="no"?><!DOCTYPE svg PUBLIC "-//W3C//DTD SVG 1.1//EN" "http://www.w3.org/Graphics/SVG/1.1/DTD/svg11.dtd"><svg t="1535186899232" class="icon" style="" viewBox="0 0 1024 1024" version="1.1" xmlns="http://www.w3.org/2000/svg" p-id="3451" xmlns:xlink="http://www.w3.org/1999/xlink" width="128" height="128"><defs><style type="text/css"></style></defs><path d="M944.016 86.732l-158.964-0.163v-39.242h-78.326v39.161l-394.561-0.402 0.125-39.766-79.716-0.187 0.059 39.872-157.597-0.16-0.021 0.49 0.016 869.53 870.048-0.124-1.059-869.003zM153.012 165.089l79.735-0.021 0.059 39.563 78.986 0.441 0.125-40.025 394.807-0.113v39.699h78.326v-39.722l80.813-0.021-0.135 79.937-712.881 0.045 0.018-79.787 0.148 0.004zM152.701 877.569l0.127-553.729 712.763 0.138-0.941 553.591h-711.952z" p-id="3452"></path><path d="M392.276 400.333h80.463v80.463h-80.463v-80.463z" p-id="3453"></path><path d="M392.276 560.262h80.463v80.463h-80.463v-80.463z" p-id="3454"></path><path d="M231.354 560.262h80.463v80.463h-80.463v-80.463z" p-id="3455"></path><path d="M231.354 718.204h80.463v80.463h-80.463v-80.463z" p-id="3456"></path><path d="M390.29 718.204h80.463v80.463h-80.463v-80.463z" p-id="3457"></path><path d="M548.231 718.204h80.463v80.463h-80.463v-80.463z" p-id="3458"></path><path d="M550.218 400.333h80.463v80.463h-80.463v-80.463z" p-id="3459"></path><path d="M550.218 559.268h80.463v80.463h-80.463v-80.463z" p-id="3460"></path><path d="M709.156 400.333h80.463v80.463h-80.463v-80.463z" p-id="3461"></path><path d="M709.156 560.262h80.463v80.463h-80.463v-80.463z" p-id="3462"></path></svg>