<?xml version="1.0" standalone="no"?><!DOCTYPE svg PUBLIC "-//W3C//DTD SVG 1.1//EN" "http://www.w3.org/Graphics/SVG/1.1/DTD/svg11.dtd"><svg t="1535187123617" class="icon" style="" viewBox="0 0 1024 1024" version="1.1" xmlns="http://www.w3.org/2000/svg" p-id="6418" xmlns:xlink="http://www.w3.org/1999/xlink" width="128" height="128"><defs><style type="text/css"></style></defs><path d="M888.768 843.648l-78.016 0 0-38.976 78.016 0c21.696 0 39.104-17.472 39.104-38.976L927.872 355.968l-156.16 0c-43.072 0-77.952-34.944-77.952-78.08L693.76 141.312 693.76 102.336 342.528 102.336c-21.504 0-38.976 17.472-38.976 38.976l-39.04 0c0-43.072 35.008-78.016 78.016-78.016 0 0 149.952 0 292.672 0 3.52 0 6.912 0 10.368 0 6.848 0 13.504 0 20.16 0l54.592 0 240.896 259.328-1.28 6.912 6.848 6.848 0 58.56 0 370.688C966.784 808.768 931.968 843.648 888.768 843.648L888.768 843.648zM732.736 134.72l0 143.168c0 21.568 17.408 39.04 38.912 39.04l131.904 0L732.736 134.72 732.736 134.72zM450.56 180.288c6.784 0 13.376 0 20.032 0l54.656 0L766.08 439.68l-1.152 6.912 6.72 6.848 0 8.96L771.648 512l0 370.752c0 43.008-34.88 78.016-77.952 78.016L147.456 960.768c-43.008 0-78.08-35.008-78.08-78.016L69.376 258.368c0-43.072 35.008-78.08 78.08-78.08 0 0 149.888 0 292.672 0C443.584 180.288 446.976 180.288 450.56 180.288L450.56 180.288zM537.6 251.776l0 143.168c0 21.568 17.408 38.976 39.104 38.976l131.84 0L537.6 251.776 537.6 251.776zM108.48 258.368l0 624.384c0 21.504 17.472 38.976 38.976 38.976l546.304 0c21.568 0 38.976-17.472 38.976-38.976L732.736 472.96 576.704 472.96c-43.136 0-78.08-34.944-78.08-78.016L498.624 219.328 147.456 219.328C125.952 219.328 108.48 236.8 108.48 258.368L108.48 258.368zM205.952 492.48l195.072 0 0 38.976L205.952 531.456 205.952 492.48 205.952 492.48zM205.952 375.424l195.072 0 0 38.976L205.952 414.4 205.952 375.424 205.952 375.424zM635.2 648.64 205.952 648.64 205.952 609.472l429.248 0L635.2 648.64 635.2 648.64zM635.2 765.632 205.952 765.632l0-38.976 429.248 0L635.2 765.632 635.2 765.632z" p-id="6419"></path></svg>