<svg t="1593421201579" class="icon" viewBox="0 0 1024 1024" version="1.1" xmlns="http://www.w3.org/2000/svg" p-id="7737" width="200" height="200"><path d="M873.4 872.2V445.1c0-22.9-18.5-41.4-41.4-41.4H672.6v-174c0-14.8-12-26.8-26.8-26.8s-26.8 12-26.8 26.8v174h-80.3v-174c0-14.8-12-26.8-26.8-26.8s-26.8 12-26.8 26.8v174h-80.3v-174c0-14.8-12-26.8-26.8-26.8s-26.8 12-26.8 26.8v174H191.9c-22.9 0-41.4 18.5-41.4 41.4v427.1H125c-14.8 0-26.8 12-26.8 26.8s12 26.8 26.8 26.8h774c14.8 0 26.8-12 26.8-26.8s-12-26.8-26.8-26.8h-25.6z m-522-415h447.8c11.4 0 20.7 9.3 20.7 20.7v287.2H204.1V477.9c0-11.4 9.3-20.7 20.7-20.7h126.6z m-147.3 415v-53.5h615.8v53.5H204.1z m174-774c14.8 0 26.8 12 26.8 26.8v26.8c0 14.8-12 26.8-26.8 26.8s-26.8-12-26.8-26.8V125c0.1-14.8 12-26.8 26.8-26.8z m133.9 0c14.8 0 26.8 12 26.8 26.8v26.8c0 14.8-12 26.8-26.8 26.8s-26.8-12-26.8-26.8V125c0-14.8 12-26.8 26.8-26.8z m133.9 0c14.8 0 26.8 12 26.8 26.8v26.8c0 14.8-12 26.8-26.8 26.8s-26.8-12-26.8-26.8V125c0-14.8 12-26.8 26.8-26.8z m-26.8 0" p-id="7738"></path></svg>
