<svg t="1593419887310" class="icon" viewBox="0 0 1024 1024" version="1.1" xmlns="http://www.w3.org/2000/svg" p-id="2436" width="200" height="200"><path d="M400 193V97c0-17.673 14.327-32 32-32h161c17.673 0 32 14.327 32 32v96h207c17.673 0 32 14.327 32 32v703c0 17.673-14.327 32-32 32H192c-17.673 0-32-14.327-32-32V225c0-17.673 14.327-32 32-32h208z m64 0h97v-32c0-17.673-14.327-32-32-32h-33c-17.673 0-32 14.327-32 32v32z m-208 64c-17.673 0-32 14.327-32 32v575c0 17.673 14.327 32 32 32h512c17.673 0 32-14.327 32-32V289c0-17.673-14.327-32-32-32H256z m164.334 336.759C382.512 565.699 358 520.712 358 470c0-85.052 68.948-154 154-154s154 68.948 154 154c0 50.712-24.512 95.699-62.334 123.759C700.902 630.727 770 724.794 770 835h-64c0-107.143-86.857-194-194-194s-194 86.857-194 194h-64c0-110.206 69.098-204.273 166.334-241.241zM512 560c49.706 0 90-40.294 90-90s-40.294-90-90-90-90 40.294-90 90 40.294 90 90 90z" p-id="2437"></path></svg>
